<svg width="1300" height="1300" viewBox="0 0 1300 1300" fill="none" xmlns="http://www.w3.org/2000/svg">
<mask id="mask0_26_635" style="mask-type:alpha" maskUnits="userSpaceOnUse" x="0" y="0" width="1301" height="1300">
<path d="M650 1300C290.71 1300 0 1008.86 0 650C0 290.71 291.141 0 650 0C1009.29 0 1300 291.141 1300 650C1300.43 1009.29 1009.29 1300 650 1300Z" fill="#F7C0B5"/>
</mask>
<g mask="url(#mask0_26_635)">
<path d="M1014 1197.33C1010.97 1199.5 1007.5 1201.66 1004.47 1203.83C1001 1206 997.967 1208.16 994.5 1209.9C991.467 1211.63 988.867 1213.36 985.833 1215.1C985.4 1215.53 984.967 1215.53 984.533 1215.96C974.567 1222.03 964.167 1227.66 953.767 1232.86C950.733 1234.6 947.267 1236.33 944.233 1237.63C944.233 1237.63 943.8 1238.06 943.367 1238.06C939.9 1239.8 936.433 1241.53 932.967 1243.26C926.033 1246.73 918.667 1249.76 911.733 1252.8C908.267 1254.53 904.367 1255.83 900.9 1257.13C897.433 1258.43 893.533 1260.16 890.067 1261.46C886.6 1262.76 882.7 1264.5 879.233 1265.8C879.233 1265.8 879.233 1265.8 878.8 1265.8C875.333 1267.1 871.433 1268.4 867.967 1269.7C860.167 1272.3 851.933 1274.9 844.133 1277.5C841.533 1278.36 838.5 1279.23 835.9 1280.1C827.667 1282.7 819.433 1284.86 811.2 1286.6C808.167 1287.46 805.133 1287.9 801.667 1288.76C793.867 1290.5 785.633 1292.23 777.833 1293.96C776.1 1294.4 774.8 1294.4 773.067 1294.83C770.467 1295.26 767.433 1295.7 764.833 1296.13C760.933 1296.56 757.467 1297.43 753.567 1297.86C751.833 1298.3 750.1 1298.3 748.367 1298.73C746.2 1299.16 743.6 1299.6 741 1299.6C734.067 1300.46 726.7 1301.33 719.767 1302.2C717.6 1302.63 715 1302.63 712.833 1303.06H712.4C709.367 1303.5 706.333 1303.5 703.3 1303.93C700.267 1304.36 697.233 1304.36 694.2 1304.36C692.467 1304.36 690.3 1304.8 688.567 1304.8C685.1 1304.8 682.067 1305.23 679.033 1305.23C674.7 1305.23 670.8 1305.66 666.467 1305.66C662.133 1305.66 658.233 1305.66 653.9 1305.66C650.867 1305.66 647.833 1305.66 644.8 1305.66C462.367 1303.06 297.7 1225.5 180.7 1102.43C180.7 1102.43 180.7 1102 180.267 1102C193.7 1075.56 243.534 1027.9 295.534 988.465C361.4 938.632 454.567 907.865 454.567 907.865C454.567 907.865 515.667 897.898 742.3 945.132C915.2 981.532 988.867 1129.3 1014 1197.33Z" fill="#F7D3B5"/>
<path d="M790.4 1065.16C781.3 1109.8 722.367 1136.23 623.134 1096.36C501.367 1046.96 454.567 907.865 454.567 907.865C448.067 808.198 432.9 722.832 432.9 722.832C573.734 710.698 740.134 875.365 740.134 875.365L759.2 956.832C760.934 963.765 764.4 969.832 769.6 974.165C778.7 989.765 796.467 1036.56 790.4 1065.16Z" fill="#F7D3B5"/>
<path d="M769.6 974.599C686.833 970.265 625.733 958.132 560.3 840.699C615.767 889.665 681.2 908.299 750.1 916.965L759.2 956.832C760.933 964.199 764.4 970.265 769.6 974.599Z" fill="#EFBDA5"/>
<path d="M940.767 452.432C948.567 488.832 952.467 518.298 931.233 615.365C910 712.432 950.733 809.498 848.467 898.332C779.567 958.132 659.1 969.398 562.9 903.965C530.4 881.865 500.5 851.098 476.233 810.798C457.167 779.165 435.067 749.265 410.367 721.965C376.133 684.698 334.967 609.732 355.333 477.132C388.267 261.332 601.9 236.632 728 260.465C854.1 284.298 919.533 356.232 940.767 452.432Z" fill="#F7D3B5"/>
<path d="M526.067 621.865C526.067 621.865 512.633 556.865 449.367 564.665C394.767 571.598 375.7 702.465 499.633 738.865" fill="#F7D3B5"/>
<path d="M495.734 679.498C495.734 679.498 480.134 669.532 481.867 652.198C484.467 631.832 481.867 619.265 472.334 615.365C448.501 605.398 443.734 633.132 444.601 636.598" stroke="#423232" stroke-width="13" stroke-miterlimit="10" stroke-linecap="round" stroke-linejoin="round"/>
<path d="M826.367 721.532C826.367 721.532 842.833 722.398 858.433 703.765C867.1 693.365 874.467 680.365 869.7 676.465C864.933 672.132 786.5 684.265 781.3 694.665C776.1 705.065 806.433 721.532 826.367 721.532Z" fill="#EFBDA5"/>
<path d="M839.367 575.932C839.367 575.932 840.234 617.098 866.667 663.032C878.367 683.398 860.601 716.765 822.034 722.398" stroke="#423232" stroke-width="13" stroke-miterlimit="10" stroke-linecap="round" stroke-linejoin="round"/>
<path opacity="0.42" d="M604.501 743.632C629.151 743.632 649.134 727.141 649.134 706.799C649.134 686.456 629.151 669.965 604.501 669.965C579.85 669.965 559.867 686.456 559.867 706.799C559.867 727.141 579.85 743.632 604.501 743.632Z" fill="#ED938A"/>
<path opacity="0.42" d="M924.3 670.832C923 695.098 923.434 718.932 921.7 742.765C902.634 738.432 888.767 724.132 888.767 707.232C888.767 689.032 903.933 674.298 924.3 670.832Z" fill="#ED938A"/>
<path d="M899.515 1020.52C867.307 989.904 824.928 953.965 756.273 935.331C680.414 914.477 641.002 959.29 580.399 953.078C547.767 949.528 494.369 882.976 458.347 892.737C413.849 905.16 364.689 930.006 305.358 973.044C292.644 982.361 183.729 1058.67 146.011 1183.35C111.684 1296.05 103.208 1451.34 102.361 1502.8H1067.76C1068.19 1184.24 932.995 1052.46 899.515 1020.52Z" fill="#FFD6C2"/>
<path d="M444.362 945.092C444.362 945.092 436.309 871.44 443.514 847.925C444.362 844.819 453.261 839.495 453.261 839.495C453.261 839.495 453.261 880.757 548.615 909.153C649.054 938.88 760.935 930.006 781.701 920.689C781.701 920.689 782.125 981.917 771.106 1004.99C754.154 1040.48 619.388 1032.94 537.596 1003.66C465.975 977.924 444.362 945.092 444.362 945.092Z" fill="#FFD6C2"/>
<g opacity="0.25">
<g opacity="0.25">
<g opacity="0.25">
<g opacity="0.25">
<path opacity="0.25" d="M49.8103 1001C135.84 951.303 124.398 1002.77 249.417 977.481C302.815 966.832 362.993 918.027 439.7 914.477C498.183 911.815 563.024 952.634 635.069 957.958C695.247 962.395 764.749 930.006 834.251 941.986C894.854 952.191 950.794 1005.43 1018.6 1022.74" stroke="#6D5F5E" stroke-width="5.0089" stroke-miterlimit="10" stroke-linecap="round" stroke-linejoin="round"/>
</g>
<g opacity="0.25">
<path opacity="0.25" d="M51.5054 1051.58C144.316 1011.2 129.483 1062.22 256.621 1040.48C312.138 1031.17 374.86 981.917 452.414 978.368C513.016 975.706 579.552 1016.97 652.868 1020.96C715.165 1024.51 785.515 989.46 856.289 999.665C919.01 1008.54 977.917 1061.78 1047 1077.31" stroke="#6D5F5E" stroke-width="5.0089" stroke-miterlimit="10" stroke-linecap="round" stroke-linejoin="round"/>
</g>
<g opacity="0.25">
<path opacity="0.25" d="M53.2007 1102.16C151.521 1070.21 133.721 1120.35 263.402 1102.6C320.614 1094.61 385.878 1045.36 464.704 1041.81C527.001 1039.15 596.08 1081.3 670.243 1084.41C734.66 1087.07 805.857 1049.36 878.326 1057.79C943.166 1065.33 1005.04 1118.13 1075.81 1131.44" stroke="#6D5F5E" stroke-width="5.0089" stroke-miterlimit="10" stroke-linecap="round" stroke-linejoin="round"/>
</g>
<g opacity="0.25">
<path opacity="0.25" d="M54.8958 1152.74C157.877 1128.78 137.959 1178.03 270.183 1163.83C329.514 1157.17 397.321 1107.92 477.417 1104.82C541.834 1102.16 612.607 1145.64 688.466 1147.41C755.002 1149.19 827.471 1109.25 901.211 1115.91C968.594 1122.12 1033.43 1174.03 1105.48 1185.57" stroke="#6D5F5E" stroke-width="5.0089" stroke-miterlimit="10" stroke-linecap="round" stroke-linejoin="round"/>
</g>
<g opacity="0.25">
<path opacity="0.25" d="M56.1672 1203.76C162.963 1186.46 141.35 1235.7 275.692 1224.61C337.142 1219.73 407.492 1170.04 488.86 1167.38C555.396 1165.16 628.288 1209.53 704.995 1210.86C773.649 1211.75 847.389 1169.6 922.4 1174.48C991.902 1178.91 1060.13 1230.38 1133.87 1239.25" stroke="#6D5F5E" stroke-width="5.0089" stroke-miterlimit="10" stroke-linecap="round" stroke-linejoin="round"/>
</g>
<g opacity="0.25">
<path opacity="0.25" d="M57.0149 1254.78C167.201 1243.69 144.316 1292.5 280.778 1284.95C344.347 1281.4 417.239 1232.16 500.303 1230.38C568.957 1228.61 643.545 1274.31 721.946 1274.75C792.72 1275.19 868.155 1230.38 944.014 1233.93C1016.48 1237.04 1087.68 1287.62 1162.27 1293.38" stroke="#6D5F5E" stroke-width="5.0089" stroke-miterlimit="10" stroke-linecap="round" stroke-linejoin="round"/>
</g>
<g opacity="0.25">
<path opacity="0.25" d="M58.2861 1306.25C171.439 1300.93 147.283 1349.29 286.711 1345.29C351.975 1343.52 427.834 1294.27 512.592 1292.94C583.366 1292.05 660.072 1338.64 739.745 1338.64C813.062 1338.64 889.768 1292.05 966.898 1293.38C1041.91 1294.71 1116.5 1344.41 1192.36 1347.51" stroke="#6D5F5E" stroke-width="5.0089" stroke-miterlimit="10" stroke-linecap="round" stroke-linejoin="round"/>
</g>
</g>
</g>
</g>
<path d="M322.733 964.17C339.261 983.692 407.068 1068.44 431.224 1164.27L485.894 1173.59C485.894 1173.59 427.41 1020.96 346.889 946.423C343.499 943.317 338.414 942.873 334.176 944.648C330.785 946.423 326.547 949.528 322.733 954.853C320.19 957.958 320.614 961.952 322.733 964.17Z" fill="#423232"/>
<path d="M840.185 1144.31C840.185 1144.31 847.389 1029.84 792.72 949.085C792.72 949.085 796.11 945.535 815.181 955.296C828.742 961.952 868.579 1019.19 872.393 1134.99C872.817 1134.99 844.846 1144.75 840.185 1144.31Z" fill="#423232"/>
<path d="M418.51 1084.85C418.51 1084.85 731.694 1172.26 866.883 1075.53C866.883 1075.53 937.233 1220.62 964.78 1502.8H361.298C361.298 1502.8 410.458 1434.92 418.51 1084.85Z" fill="#423232"/>
<path d="M475.722 1193.11C486.957 1193.11 496.065 1183.58 496.065 1171.81C496.065 1160.05 486.957 1150.52 475.722 1150.52C464.488 1150.52 455.38 1160.05 455.38 1171.81C455.38 1183.58 464.488 1193.11 475.722 1193.11Z" fill="white"/>
<path d="M852.051 1159.39C861.881 1159.39 869.85 1151.05 869.85 1140.76C869.85 1130.46 861.881 1122.12 852.051 1122.12C842.22 1122.12 834.251 1130.46 834.251 1140.76C834.251 1151.05 842.22 1159.39 852.051 1159.39Z" fill="white"/>
<path d="M903.177 384.006C914.55 319.998 942.77 472.44 936.452 442.541C934.346 433.276 931.819 424.433 928.871 415.59C906.547 397.903 882.96 386.533 847.158 381.48C750.703 368.425 674.466 377.269 593.174 394.955C542.209 405.904 552.739 581.929 532.943 605.09C529.573 593.299 513.146 545.292 459.233 552.03C408.268 558.346 388.892 676.257 494.192 716.684C493.35 739.845 471.869 782.799 454.6 792.484C454.6 792.484 451.651 761.743 417.955 721.316C384.259 680.89 316.867 576.033 362.357 422.749C407.846 269.464 613.813 189.453 805.459 267.359C838.313 280.834 865.269 299.784 886.751 319.576C937.295 365.899 923.816 299.784 915.813 368.004C912.865 389.902 915.813 367.583 903.177 384.006Z" fill="#423232"/>
<path d="M860.637 366.741C860.637 366.741 744.386 560.031 513.147 501.075C513.147 501.075 468.078 387.796 566.218 344.422C664.779 301.468 837.05 328.841 860.637 366.741Z" fill="#423232"/>
<path d="M820.201 378.111C820.201 378.111 866.533 386.954 898.966 421.485C929.292 453.49 935.61 314.102 942.349 344.843C942.349 344.843 959.619 386.954 884.645 342.316C809.671 297.257 820.201 378.111 820.201 378.111Z" fill="#423232"/>
<path d="M361.935 611.828C361.935 611.828 310.549 578.981 235.575 611.828C167.762 641.726 203.143 727.212 246.527 720.895C246.527 720.895 164.814 752.479 195.14 819.856C219.57 874.18 293.701 842.596 293.701 842.596C293.701 842.596 258.741 898.604 310.128 923.871C362.357 949.559 388.892 877.128 388.892 877.128C388.892 877.128 401.107 936.504 454.599 927.24C520.728 915.87 487.032 837.122 487.032 837.122C487.032 837.122 522.834 860.704 538.839 819.856C557.372 773.113 475.659 736.055 475.659 736.055C475.659 736.055 389.735 637.515 385.944 598.773C381.732 559.61 361.935 611.828 361.935 611.828Z" fill="#423232"/>
<path d="M988.26 803.433C988.26 803.433 1047.65 843.859 1012.69 894.393C970.991 955.033 901.071 888.918 901.071 888.918C913.707 929.766 868.218 997.144 806.301 944.084C794.508 933.977 785.241 923.449 778.081 913.343C803.774 904.921 827.361 892.287 846.737 875.443C902.335 827.436 914.55 776.482 917.919 724.685C919.604 701.524 919.183 678.363 920.447 654.78C921.289 638.778 922.553 623.197 925.501 607.195C948.246 590.772 991.208 589.929 1002.58 614.775C1029.54 674.152 979.415 698.576 976.466 699.839C979.836 698.997 1059.02 682.574 1059.44 747.004C1060.29 814.803 988.26 803.433 988.26 803.433Z" fill="#423232"/>
<path d="M936.873 417.274C936.873 417.274 1028.69 481.704 1008.9 355.371C993.735 258.936 920.868 202.507 805.88 236.617C805.88 236.617 610.022 164.186 454.599 253.883C323.185 329.683 315.603 520.446 362.356 611.827C362.356 611.827 368.253 428.644 497.14 385.27C625.606 341.895 703.95 308.206 819.78 347.37C935.61 386.533 936.873 417.274 936.873 417.274Z" fill="#423232"/>
<path d="M840.419 255.146C840.419 255.146 827.783 177.241 760.391 167.134C692.578 157.027 722.483 237.039 722.483 237.039C722.483 237.039 817.253 273.254 840.419 255.146Z" fill="#423232"/>
<path d="M744.806 223.984C744.806 223.984 709.425 175.135 642.033 184.4C574.641 193.664 617.182 248.83 617.182 248.83C617.182 248.83 759.548 287.151 744.806 223.984Z" fill="#423232"/>
<path d="M840.419 384.006C840.419 384.006 888.857 405.483 918.762 448.857C948.667 492.232 1002.58 482.125 1010.16 401.693C1018.17 321.682 861.9 298.942 840.419 384.006Z" fill="#423232"/>
<path d="M827.627 774.081C828.076 781.27 822.685 793.85 812.8 802.836C762.031 771.835 739.117 788.009 739.117 788.009C721.146 760.603 725.189 723.312 768.77 751.617C799.322 770.936 817.742 774.081 827.627 774.081Z" fill="#423232"/>
<path d="M812.801 802.836C802.018 812.271 785.843 818.111 763.828 809.126C753.495 805.082 745.408 796.995 739.118 788.009C739.118 788.009 762.031 771.835 812.801 802.836Z" fill="#FE9DAB"/>
<path d="M836.164 772.284C836.164 772.284 817.294 782.618 768.771 751.617C710.813 714.326 722.494 792.502 763.379 809.126C806.061 826.648 828.076 788.459 827.627 774.081" stroke="#423232" stroke-width="13.4786" stroke-miterlimit="10" stroke-linecap="round" stroke-linejoin="round"/>
<path d="M739.118 788.009C739.118 788.009 762.031 771.835 812.801 802.836" stroke="#423232" stroke-width="13.4786" stroke-miterlimit="10" stroke-linecap="round" stroke-linejoin="round"/>
<path d="M756.403 536.649C765.817 537.949 773.091 527.982 769.668 518.449C767.956 513.249 764.961 508.482 760.254 505.449C745.705 496.349 691.359 495.482 662.689 516.282C637.442 535.349 713.611 530.582 756.403 536.649Z" fill="#423232"/>
<path d="M874.934 541.416C867.231 541.416 862.524 531.449 866.375 523.216C868.515 518.882 871.51 514.982 875.789 512.816C889.055 506.316 924.572 510.216 940.405 532.316C954.526 551.816 910.451 540.982 874.934 541.416Z" fill="#423232"/>
<path d="M741.424 591.249C714.037 577.382 670.818 587.782 670.818 587.782" stroke="#423232" stroke-width="13.4786" stroke-miterlimit="10" stroke-linecap="round" stroke-linejoin="round"/>
<path d="M910.454 599.916C910.454 599.916 899.328 587.782 858.248 597.316" stroke="#423232" stroke-width="13.4786" stroke-miterlimit="10" stroke-linecap="round" stroke-linejoin="round"/>
</g>
</svg>
